<svg xmlns="http://www.w3.org/2000/svg" viewBox="0 0 44 47">
  <path d="M25.125,10.5615846 L33,16.2833745 L33,21 L46,21 L46,48 L33,48 L29,48 L29,38.899111 C29,38.4025804 28.5970215,38 28.1,38 L19.9,38 C19.4029785,38 19,38.4025804 19,38.899111 L19,48 L15,48 L2,48 L2,21 L15,21 L15,16.2833745 L22.875,10.5615846 L22.875,1.9001368 C22.875,1.40303974 23.3787231,1 24,1 C24.6212769,1 25.125,1.40303974 25.125,1.9001368 L25.125,2.09302326 L33,2.09302326 L33,7.55813953 L25.125,7.55813953 L25.125,10.5615846 Z M40,24 L40,27 L44,27 L44,24 L40,24 Z M40,28 L40,31 L44,31 L44,28 L40,28 Z M40,32 L40,35 L44,35 L44,32 L40,32 Z M40,36 L40,39 L44,39 L44,36 L40,36 Z M35,24 L35,27 L39,27 L39,24 L35,24 Z M35,28 L35,31 L39,31 L39,28 L35,28 Z M35,32 L35,35 L39,35 L39,32 L35,32 Z M35,36 L35,39 L39,39 L39,36 L35,36 Z M8,39 L8,36 L4,36 L4,39 L8,39 Z M8,35 L8,32 L4,32 L4,35 L8,35 Z M8,31 L8,28 L4,28 L4,31 L8,31 Z M8,27 L8,24 L4,24 L4,27 L8,27 Z M13,39 L13,36 L9,36 L9,39 L13,39 Z M13,35 L13,32 L9,32 L9,35 L13,35 Z M13,31 L13,28 L9,28 L9,31 L13,31 Z M13,27 L13,24 L9,24 L9,27 L13,27 Z M19.5,23.9534884 C19.5,26.3679597 21.5148925,28.3255814 24,28.3255814 C26.4851075,28.3255814 28.5,26.3679597 28.5,23.9534884 C28.5,21.5390171 26.4851075,19.5813953 24,19.5813953 C21.5157715,19.5843841 19.5030762,21.539871 19.5,23.9534884 Z M25.1216011,20.6755194 L25.1216011,25.0520154 L21.7432022,25.0520154 L21.7432022,23.9811707 L23.9954681,23.9811707 L23.9954681,20.6755194 L25.1216011,20.6755194 Z" transform="translate(-2 -1)"/>
</svg>
